<?xml version="1.0" standalone="no"?>
<!DOCTYPE svg PUBLIC "-//W3C//DTD SVG 20010904//EN"
 "http://www.w3.org/TR/2001/REC-SVG-20010904/DTD/svg10.dtd">
<svg version="1.0" xmlns="http://www.w3.org/2000/svg"
 width="40.000000pt" height="40.000000pt" viewBox="0 0 512.000000 512.000000"
 preserveAspectRatio="xMidYMid meet">

<g transform="translate(0.000000,512.000000) scale(0.100000,-0.100000)"
fill="#000000" stroke="none">
<path d="M371 4298 c2 -453 0 -829 -4 -835 -6 -10 -55 -13 -188 -13 l-179 0 0
-74 c0 -104 0 -104 68 -99 31 2 143 7 247 12 124 5 198 12 214 20 l24 13 -6
676 c-4 371 -7 776 -7 899 l0 223 -86 0 -86 0 3 -822z"/>
<path d="M1097 4923 c1 -109 4 -649 7 -1201 3 -551 8 -1007 11 -1012 4 -6 110
-11 273 -11 147 -1 301 -4 342 -8 l75 -6 -40 -21 c-53 -29 -299 -129 -350
-143 -49 -14 -188 -85 -248 -127 -24 -17 -57 -52 -73 -78 -16 -25 -48 -74 -71
-109 -79 -117 -96 -149 -134 -256 -20 -58 -53 -130 -73 -160 -27 -40 -36 -63
-36 -95 0 -31 -6 -48 -21 -62 -31 -28 -45 -62 -52 -122 -4 -38 -19 -74 -50
-125 -24 -40 -47 -84 -50 -98 -4 -14 -38 -78 -77 -142 -38 -63 -70 -124 -70
-135 0 -12 14 -29 34 -42 19 -11 45 -37 56 -55 20 -32 21 -40 10 -102 -6 -38
-14 -183 -16 -323 -3 -140 -7 -265 -9 -276 -3 -12 -15 -25 -27 -29 l-23 -7 25
-7 c24 -6 25 -11 28 -89 l3 -82 376 0 c207 0 374 2 372 5 -3 2 -32 13 -64 24
-33 11 -85 28 -115 39 -30 12 -104 35 -164 54 -96 29 -114 38 -155 79 -47 47
-101 108 -101 115 0 2 -9 18 -19 35 l-19 31 1 -149 c0 -81 -3 -163 -7 -182 -7
-28 -10 -31 -22 -19 -13 13 -16 88 -11 278 1 19 0 64 -2 100 -7 123 -1 301 9
295 13 -8 13 1 0 26 -8 14 -7 25 5 43 13 19 14 29 6 45 -20 37 -13 65 20 80
40 18 226 9 314 -14 33 -9 83 -20 112 -25 59 -9 152 -52 179 -81 9 -10 25 -19
35 -19 10 0 20 -4 23 -9 13 -20 -102 -285 -133 -308 -14 -10 -13 -14 9 -32 14
-11 33 -20 43 -21 9 0 17 -4 17 -10 0 -5 5 -10 10 -10 6 0 52 -25 102 -55 51
-30 94 -52 97 -49 4 4 -3 11 -13 18 -11 6 -30 21 -43 33 -19 19 -22 27 -13 43
10 18 8 20 -19 20 -16 0 -33 5 -36 10 -3 6 -24 10 -46 10 -48 0 -57 16 -34 59
11 22 23 31 40 31 28 0 42 17 26 33 -7 7 -12 6 -17 -6 -10 -26 -24 -20 -24 11
0 19 3 23 9 13 11 -17 18 -4 19 36 0 17 5 41 11 52 6 11 11 30 11 42 0 13 20
42 50 72 l50 50 57 -6 c99 -11 137 -19 168 -35 30 -15 148 -108 152 -121 2 -3
-13 -17 -32 -29 -76 -52 -119 -145 -96 -208 11 -30 10 -37 -8 -60 -12 -15 -21
-36 -21 -48 0 -11 -9 -32 -19 -46 -19 -23 -22 -24 -65 -12 -26 6 -52 12 -59
12 -24 -1 100 -70 179 -101 78 -29 107 -48 167 -107 l29 -27 446 -2 c387 -2
442 0 412 11 -100 40 -247 91 -345 122 -60 19 -123 39 -140 44 -16 5 -46 10
-65 12 -19 1 -38 6 -41 10 -3 5 -25 10 -49 11 -29 1 -51 9 -66 25 -13 12 -32
22 -42 22 -10 0 -27 9 -37 20 -18 20 -16 22 64 98 l81 77 -6 48 c-6 40 -4 47
11 47 9 0 105 -18 213 -40 236 -47 311 -57 513 -66 135 -6 168 -4 269 15 63
12 133 25 155 29 36 7 40 10 37 34 -2 25 16 47 74 86 16 11 16 11 -5 1 -33
-15 -25 0 29 58 25 26 63 70 85 96 40 51 127 113 180 129 37 12 406 32 575 32
101 -1 139 -5 196 -23 120 -37 131 -61 120 -240 -4 -58 -11 -178 -16 -266 -11
-179 -16 -229 -30 -298 -14 -68 -13 -97 5 -97 8 0 16 13 19 33 15 105 27 249
37 450 l13 228 58 58 c32 33 58 65 58 72 0 8 -16 46 -35 84 -32 66 -118 356
-150 508 -8 37 -26 94 -41 127 -19 44 -25 68 -20 93 12 63 -78 362 -164 544
-68 144 -111 187 -269 267 -69 35 -214 98 -321 140 -107 42 -223 88 -257 102
l-62 26 -7 66 c-4 37 -4 194 -1 350 4 231 3 281 -8 272 -7 -6 -16 -26 -19 -45
-8 -39 -59 -85 -96 -85 -20 0 -22 3 -15 36 8 43 -7 39 -30 -9 -16 -34 -94
-125 -108 -125 -34 -1 -108 -29 -112 -43 -3 -9 -32 -27 -66 -39 -58 -22 -64
-22 -163 -10 -57 7 -119 10 -138 6 -27 -5 -41 -2 -61 14 -14 11 -28 20 -31 20
-12 0 -47 41 -56 65 -7 18 -5 28 5 39 19 19 19 26 0 26 -8 0 -15 5 -15 10 0 6
-7 10 -15 10 -8 0 -20 10 -26 23 -16 31 -15 30 -38 17 -14 -7 -21 -7 -21 0 0
5 -3 9 -7 8 -5 -1 -21 4 -36 10 -16 7 -35 12 -43 12 -8 0 -14 6 -14 13 0 8
-12 19 -26 26 -20 9 -25 17 -22 36 3 13 0 23 -5 22 -6 -1 -14 9 -18 23 -6 22
-7 22 -8 4 -1 -28 -32 -56 -50 -45 -10 7 -11 13 -1 31 14 26 6 38 -14 21 -8
-7 -20 -10 -26 -6 -15 9 -13 1 11 -51 13 -26 32 -49 45 -54 13 -5 26 -20 28
-32 11 -49 26 -209 33 -334 l6 -131 -78 -6 c-43 -4 -255 -7 -470 -7 -349 0
-394 2 -399 16 -3 9 -6 231 -6 493 0 263 -3 762 -7 1109 l-6 632 -71 0 -71 0
2 -197z m2045 -1844 c12 -18 17 -20 35 -10 25 13 22 25 29 -132 6 -123 7 -122
-76 -110 l-55 8 0 123 c0 98 3 125 15 132 23 15 36 12 52 -11z m-158 -201 c-3
-10 -1 -18 5 -18 6 0 8 -8 5 -17 -5 -15 -4 -16 5 -3 10 15 60 25 62 12 9 -53
7 -61 -13 -57 -11 3 -18 2 -15 -2 4 -3 2 -14 -4 -24 -7 -15 -6 -19 5 -19 8 0
17 -6 19 -12 3 -7 6 -3 6 10 1 29 21 19 21 -11 0 -40 -105 -128 -220 -184
-114 -56 -146 -65 -296 -87 -127 -19 -218 -10 -300 30 -116 57 -164 112 -164
189 0 30 10 46 60 100 33 35 60 69 60 75 0 23 31 7 86 -46 59 -58 65 -65 105
-144 12 -25 26 -47 29 -50 4 -3 10 -15 14 -27 4 -13 12 -23 18 -23 6 0 7 7 3
18 -17 40 -16 49 9 66 14 9 26 13 26 8 0 -11 134 -3 138 9 2 5 17 9 32 9 21 0
42 13 76 45 25 25 50 45 54 45 5 0 25 17 44 38 30 31 38 34 46 22 8 -12 10
-11 10 6 0 31 26 37 45 11 20 -28 20 -13 0 17 -9 13 -13 30 -9 39 9 23 46 -1
38 -25z m-1059 -2306 c34 -6 40 -11 38 -30 -4 -33 16 -69 28 -51 11 19 22 5
14 -20 -5 -16 -12 -20 -28 -16 -12 3 -31 -1 -42 -9 -29 -21 -12 -31 19 -11 14
10 26 13 26 7 0 -21 -67 -52 -111 -52 -40 1 -42 2 -25 15 15 11 16 17 7 28 -6
8 -9 22 -5 31 3 9 2 16 -4 16 -5 0 -13 -7 -16 -16 -4 -11 -13 -14 -31 -10 -31
8 -32 -7 -4 -35 l21 -21 -24 7 c-12 4 -31 15 -42 25 -27 26 -15 59 41 115 39
39 51 46 72 40 14 -3 44 -9 66 -13z m-97 -250 c4 -14 -27 -16 -47 -3 -7 5 -11
14 -7 19 8 13 48 1 54 -16z m62 -268 c0 -2 -7 -4 -15 -4 -8 0 -15 4 -15 10 0
5 7 7 15 4 8 -4 15 -8 15 -10z m27 -30 c-9 -9 -28 6 -21 18 4 6 10 6 17 -1 6
-6 8 -13 4 -17z"/>
<path d="M1840 549 c0 -5 6 -9 13 -9 6 0 23 -3 36 -7 17 -4 22 -2 19 8 -5 15
-68 22 -68 8z"/>
<path d="M2357 5101 c-4 -15 -18 -19 -93 -25 -49 -3 -165 -7 -257 -8 l-168 -1
3 -31 c2 -19 9 -31 18 -32 26 -2 35 -4 50 -14 12 -7 9 -14 -15 -36 -17 -16
-31 -22 -33 -15 -2 6 -8 11 -13 11 -10 0 1 -32 15 -43 8 -6 7 -10 -1 -14 -7
-2 -13 -11 -13 -19 0 -12 11 -14 49 -10 27 2 59 10 71 16 18 10 24 9 31 -1 5
-9 12 -10 21 -3 7 6 26 11 41 12 15 1 37 7 48 13 11 5 30 10 42 9 12 -1 24 -1
27 0 15 7 87 12 177 13 58 1 101 6 100 12 -1 5 8 14 20 19 14 6 21 18 20 31
-2 16 3 20 26 18 15 -1 27 2 27 7 0 5 8 14 19 19 16 9 21 5 35 -22 13 -28 16
-29 16 -9 0 20 5 22 45 20 25 0 45 -5 45 -9 0 -10 30 0 50 17 22 19 146 47
175 40 14 -4 25 -13 25 -21 0 -8 5 -15 10 -15 6 0 10 -7 10 -15 0 -8 5 -15 10
-15 6 0 10 7 10 16 0 8 5 12 10 9 6 -4 10 13 10 44 l0 51 -220 0 c-189 0 -220
-2 -220 -15 0 -8 -7 -15 -15 -15 -8 0 -15 7 -15 15 0 12 -17 15 -94 15 -83 0
-94 -2 -99 -19z m303 -6 c0 -8 -7 -15 -15 -15 -8 0 -15 7 -15 15 0 8 7 15 15
15 8 0 15 -7 15 -15z m-142 -32 c-5 -25 -28 -28 -28 -4 0 12 6 21 16 21 9 0
14 -7 12 -17z m-548 -154 c0 -12 -29 -24 -37 -16 -3 4 -3 13 0 21 6 16 37 11
37 -5z"/>
<path d="M3270 4904 c1 -119 0 -218 -3 -220 -2 -3 -33 9 -68 26 -69 32 -120
37 -198 19 -41 -9 -48 -8 -100 24 -169 103 -216 105 -396 15 -158 -80 -256
-161 -327 -269 -32 -49 -73 -96 -114 -129 -60 -49 -83 -79 -49 -66 18 7 18 7
1 -79 -20 -95 -16 -283 6 -299 8 -6 23 -36 32 -67 10 -38 24 -62 41 -73 16
-10 25 -26 25 -41 0 -31 -17 -33 -22 -3 -4 31 -23 33 -48 6 -11 -13 -29 -31
-38 -41 -19 -20 -22 -15 39 -60 8 -7 19 -34 25 -61 5 -27 14 -51 19 -53 17 -5
55 36 49 52 -4 8 -1 15 5 15 7 0 9 22 7 63 -4 71 10 217 22 229 4 4 14 -12 21
-37 11 -37 19 -46 47 -55 37 -13 38 -16 34 -122 -1 -33 2 -58 8 -58 5 0 12 -9
15 -21 7 -26 50 -23 55 5 3 12 -1 17 -10 14 -16 -7 -48 9 -48 24 0 7 4 7 13 0
17 -15 55 -11 61 5 3 7 -1 13 -9 13 -8 0 -15 -5 -15 -11 0 -5 -5 -7 -11 -4
-13 9 32 53 46 46 6 -3 4 3 -4 12 -7 9 -25 17 -40 16 -23 0 -24 -1 -6 -9 11
-5 14 -9 7 -9 -7 -1 -11 -5 -8 -9 2 -4 -4 -13 -15 -20 -16 -10 -19 -9 -19 3 0
8 4 15 10 15 6 0 6 9 0 26 -9 22 -7 27 10 31 22 6 28 23 8 23 -8 0 -9 3 -2 10
7 7 37 8 85 3 41 -4 64 -9 51 -11 -20 -3 -21 -5 -6 -20 15 -14 17 -14 26 1 6
11 20 16 38 15 23 -2 31 -8 36 -31 5 -25 9 -28 32 -22 38 9 61 33 83 85 34 80
44 95 72 108 46 22 72 -3 86 -82 14 -81 49 -173 67 -180 9 -3 14 1 14 12 0 9
7 26 16 37 16 22 79 25 164 8 41 -8 43 -10 25 -21 -19 -12 -18 -12 5 -6 46 13
100 54 117 89 9 19 20 35 25 35 11 0 10 -68 -2 -110 -6 -19 -11 -70 -12 -113
-2 -83 5 -97 49 -97 15 0 23 -7 26 -22 3 -20 5 -21 11 -6 5 11 1 24 -13 39
-25 27 -26 39 -6 65 14 18 14 18 15 -8 0 -39 14 -41 38 -8 25 33 27 51 10 68
-20 20 -42 14 -73 -18 -25 -26 -30 -28 -38 -15 -12 22 14 59 53 75 29 12 33
11 61 -16 25 -24 32 -26 39 -14 5 8 29 46 54 85 42 63 46 74 46 131 0 44 4 65
16 75 14 11 15 26 10 85 l-7 72 41 -5 c22 -3 40 -2 40 2 0 4 -22 27 -50 52
-31 28 -62 69 -84 115 -37 73 -39 95 -6 78 44 -24 50 -10 15 35 -73 96 -74
105 -75 413 -1 152 -4 296 -7 320 l-6 42 -69 0 -69 0 1 -216z m-504 -119 c18
-14 18 -14 -7 -15 -33 0 -42 -9 -27 -27 15 -18 8 -22 -25 -16 -21 4 -25 8 -16
19 6 7 8 18 4 25 -17 26 40 38 71 14z m-38 -111 c3 -15 1 -17 -9 -6 -20 19
-43 14 -69 -13 -26 -28 -62 -37 -40 -10 10 12 10 18 0 30 -10 13 -9 15 9 15
11 0 21 4 21 9 0 15 43 19 65 6 11 -7 22 -21 23 -31z m422 -24 c7 -13 7 -21
-1 -25 -14 -9 -49 24 -49 47 0 16 3 17 20 8 11 -6 24 -19 30 -30z m9 -62 c26
-27 54 -100 49 -124 -3 -13 -8 -7 -17 21 -19 55 -48 94 -77 101 -13 3 -21 10
-18 15 10 16 43 9 63 -13z m-154 -170 c75 -25 91 -40 99 -86 12 -68 28 -136
48 -200 11 -35 18 -65 15 -68 -2 -3 -26 0 -53 7 -27 6 -125 11 -219 11 -135 0
-184 3 -237 18 -36 10 -96 21 -132 25 -52 6 -66 11 -66 24 1 25 79 169 130
239 l45 61 155 -5 c119 -4 169 -10 215 -26z"/>
<path d="M4041 4378 c1 -409 4 -762 7 -785 3 -35 9 -43 31 -51 17 -6 223 -8
534 -4 l507 5 0 78 0 79 -458 -7 -459 -6 -6 234 c-4 129 -7 451 -7 717 l0 482
-75 0 -76 0 2 -742z"/>
<path d="M4410 4955 l0 -165 255 0 c250 0 255 0 245 19 -5 11 -19 26 -30 34
-11 7 -80 73 -154 145 l-135 132 -91 0 -90 0 0 -165z"/>
<path d="M4703 5063 c34 -32 74 -69 90 -82 l27 -25 0 82 0 82 -89 0 -90 0 62
-57z"/>
<path d="M4910 5110 c0 -12 105 -12 170 -1 37 7 25 9 -62 10 -66 1 -108 -3
-108 -9z"/>
<path d="M4986 5069 c-96 -8 -117 -18 -96 -44 9 -11 23 -14 44 -10 17 3 66 8
109 12 72 6 77 7 77 29 0 27 8 26 -134 13z"/>
<path d="M4954 4991 c-75 -9 -84 -15 -84 -50 0 -23 14 -40 66 -85 64 -54 67
-56 125 -56 l60 0 -3 98 -3 97 -50 1 c-27 1 -77 -2 -111 -5z"/>
<path d="M4970 4742 c0 -12 19 -26 26 -19 2 2 -2 10 -11 17 -9 8 -15 8 -15 2z"/>
<path d="M5105 4741 c-3 -5 -1 -12 5 -16 5 -3 10 1 10 9 0 18 -6 21 -15 7z"/>
<path d="M2495 3730 c3 -5 8 -10 11 -10 2 0 4 5 4 10 0 6 -5 10 -11 10 -5 0
-7 -4 -4 -10z"/>
<path d="M2602 3680 c-32 -42 -29 -93 5 -120 19 -15 36 -20 55 -16 37 7 58 -2
58 -24 0 -29 22 -36 38 -12 9 13 25 22 41 22 35 0 48 10 61 45 16 42 -19 75
-86 79 -27 2 -62 11 -79 20 -16 9 -36 16 -42 16 -7 0 -13 5 -13 10 0 18 -16
10 -38 -20z"/>
<path d="M3245 3467 c-4 -10 -5 -21 -1 -24 10 -10 18 4 13 24 -4 17 -4 17 -12
0z"/>
<path d="M2580 3434 c-64 -17 -100 -39 -100 -59 0 -20 61 -20 131 1 71 21 144
12 232 -28 37 -17 70 -28 73 -25 11 11 -3 32 -32 47 -16 8 -47 27 -68 43 -30
20 -47 26 -67 22 -15 -3 -30 -1 -34 4 -9 15 -69 13 -135 -5z"/>
<path d="M3231 3394 c0 -11 3 -14 6 -6 3 7 2 16 -1 19 -3 4 -6 -2 -5 -13z"/>
<path d="M2630 3315 c-7 -18 -17 -25 -35 -25 -19 0 -25 -5 -23 -17 3 -16 19
-19 123 -23 66 -3 124 -2 129 2 16 13 -27 62 -65 75 -19 7 -53 12 -77 12 -36
1 -44 -3 -52 -24z"/>
<path d="M3825 790 c3 -5 8 -10 11 -10 2 0 4 5 4 10 0 6 -5 10 -11 10 -5 0 -7
-4 -4 -10z"/>
<path d="M3898 793 c-10 -2 -18 -9 -18 -14 0 -5 -47 -9 -107 -8 -60 1 -119 -3
-133 -9 l-25 -10 28 -7 c45 -12 288 1 319 16 36 18 35 25 -3 33 -33 6 -34 6
-61 -1z"/>
<path d="M4125 720 c5 -8 12 -33 16 -55 l6 -40 2 41 c1 28 -5 46 -16 55 -15
12 -16 12 -8 -1z"/>
<path d="M3470 686 c-20 -13 -42 -31 -50 -41 -14 -17 -14 -17 15 -2 25 13 87
68 74 66 -2 0 -20 -11 -39 -23z"/>
<path d="M4110 584 c-83 -116 -161 -146 -310 -119 -47 8 -94 15 -105 15 -20
-1 -20 -1 0 -12 25 -15 232 -39 265 -31 14 4 42 19 64 35 26 19 51 28 76 28
47 0 57 10 29 31 -22 16 -22 18 -5 44 26 40 14 48 -14 9z"/>
<path d="M3648 601 c-39 -6 -67 -17 -89 -36 -18 -15 -44 -31 -57 -36 -30 -11
-25 -19 18 -25 21 -4 38 0 49 10 43 39 115 59 231 65 63 3 141 4 173 1 48 -4
55 -3 40 7 -9 7 -42 13 -72 13 -31 0 -96 2 -146 5 -49 2 -116 0 -147 -4z"/>
<path d="M1108 453 c7 -3 16 -2 19 1 4 3 -2 6 -13 5 -11 0 -14 -3 -6 -6z"/>
<path d="M4385 271 c-3 -6 -11 -8 -17 -5 -7 4 -8 2 -4 -4 4 -7 2 -12 -3 -12
-6 0 -11 -6 -11 -13 0 -12 -24 -35 -91 -86 -14 -11 -34 -20 -45 -20 -79 -2
-128 4 -151 17 -26 14 -33 15 -33 3 0 -14 48 -61 63 -61 17 0 37 -20 37 -38 0
-10 -8 -12 -29 -7 -17 3 -39 2 -49 -4 -14 -7 -30 -7 -49 -1 -46 16 -165 30
-182 21 -17 -9 -54 22 -43 35 4 4 1 4 -6 0 -7 -4 -10 -12 -7 -17 4 -5 -1 -9
-10 -9 -10 0 -13 5 -9 12 4 6 3 8 -3 5 -6 -4 -25 -2 -44 3 -20 6 -37 6 -42 1
-6 -6 6 -12 29 -16 48 -8 105 -26 121 -38 15 -10 153 -27 285 -34 92 -5 100
-3 148 23 86 47 117 89 145 197 13 51 13 69 0 48z"/>
<path d="M3578 123 c7 -3 16 -2 19 1 4 3 -2 6 -13 5 -11 0 -14 -3 -6 -6z"/>
</g>
</svg>
